<svg width="14" height="14" viewBox="0 0 14 14" fill="none" xmlns="http://www.w3.org/2000/svg">
<path fill-rule="evenodd" clip-rule="evenodd" d="M1.3125 7C1.3125 3.85994 3.85994 1.3125 7 1.3125C10.1401 1.3125 12.6875 3.85994 12.6875 7C12.6875 10.1401 10.1401 12.6875 7 12.6875C3.85994 12.6875 1.3125 10.1401 1.3125 7ZM7 2.1875C4.34319 2.1875 2.1875 4.34319 2.1875 7C2.1875 9.65681 4.34319 11.8125 7 11.8125C9.65681 11.8125 11.8125 9.65681 11.8125 7C11.8125 4.34319 9.65681 2.1875 7 2.1875Z" fill="#7B7AC1"/>
<path fill-rule="evenodd" clip-rule="evenodd" d="M7 4.375C7.24162 4.375 7.4375 4.57088 7.4375 4.8125V6.5625H9.1875C9.42912 6.5625 9.625 6.75838 9.625 7C9.625 7.24162 9.42912 7.4375 9.1875 7.4375H7.4375V9.1875C7.4375 9.42912 7.24162 9.625 7 9.625C6.75838 9.625 6.5625 9.42912 6.5625 9.1875V7.4375H4.8125C4.57088 7.4375 4.375 7.24162 4.375 7C4.375 6.75838 4.57088 6.5625 4.8125 6.5625H6.5625V4.8125C6.5625 4.57088 6.75838 4.375 7 4.375Z" fill="#7B7AC1"/>
</svg>
