<svg width="25" height="25" viewBox="0 0 25 25" fill="none" xmlns="http://www.w3.org/2000/svg">
<circle cx="12.5" cy="12.5" r="12.5" fill="#FFD7D7"/>
<path fill-rule="evenodd" clip-rule="evenodd" d="M16.782 9.0319C16.8354 8.97852 16.8779 8.91513 16.9068 8.84536C16.9358 8.77559 16.9507 8.7008 16.9507 8.62525C16.9508 8.54971 16.9359 8.4749 16.9071 8.4051C16.8782 8.33529 16.8359 8.27185 16.7825 8.2184C16.7291 8.16495 16.6657 8.12254 16.596 8.09359C16.5262 8.06464 16.4514 8.04972 16.3758 8.04967C16.3003 8.04962 16.2255 8.06446 16.1557 8.09332C16.0859 8.12219 16.0224 8.16452 15.969 8.2179L12.5 11.6869L9.03199 8.2179C8.92405 8.10996 8.77765 8.04932 8.62499 8.04932C8.47234 8.04932 8.32594 8.10996 8.21799 8.2179C8.11005 8.32584 8.04941 8.47225 8.04941 8.6249C8.04941 8.77756 8.11005 8.92396 8.21799 9.0319L11.687 12.4999L8.21799 15.9679C8.16454 16.0213 8.12215 16.0848 8.09322 16.1546C8.0643 16.2245 8.04941 16.2993 8.04941 16.3749C8.04941 16.4505 8.0643 16.5253 8.09322 16.5952C8.12215 16.665 8.16454 16.7285 8.21799 16.7819C8.32594 16.8898 8.47234 16.9505 8.62499 16.9505C8.70058 16.9505 8.77543 16.9356 8.84526 16.9067C8.91509 16.8777 8.97854 16.8353 9.03199 16.7819L12.5 13.3129L15.969 16.7819C16.0769 16.8897 16.2233 16.9502 16.3758 16.9501C16.5284 16.95 16.6747 16.8893 16.7825 16.7814C16.8903 16.6735 16.9508 16.5271 16.9507 16.3745C16.9506 16.222 16.8899 16.0757 16.782 15.9679L13.313 12.4999L16.782 9.0319Z" fill="#FF0000"/>
</svg>
