<svg width="25" height="25" viewBox="0 0 25 25" fill="none" xmlns="http://www.w3.org/2000/svg">
<circle cx="12.5" cy="12.5" r="12.5" fill="#D7FFDB"/>
<path d="M11.17 13.7822L15.5148 9.25413C15.6773 9.08471 15.8842 9 16.1355 9C16.3867 9 16.5936 9.08471 16.7562 9.25413C16.9187 9.42354 17 9.63916 17 9.90099C17 10.1628 16.9187 10.3784 16.7562 10.5479L11.7906 15.7228C11.6133 15.9076 11.4064 16 11.17 16C10.9335 16 10.7266 15.9076 10.5493 15.7228L8.24384 13.3201C8.08128 13.1507 8 12.9351 8 12.6733C8 12.4114 8.08128 12.1958 8.24384 12.0264C8.4064 11.857 8.6133 11.7723 8.86453 11.7723C9.11576 11.7723 9.32266 11.857 9.48522 12.0264L11.17 13.7822Z" fill="#00FF1A"/>
</svg>
