<svg width="14" height="14" viewBox="0 0 14 14" fill="none" xmlns="http://www.w3.org/2000/svg">
<path d="M11.375 2.1875H2.625C1.90013 2.1875 1.3125 2.77513 1.3125 3.5V10.5C1.3125 11.2249 1.90013 11.8125 2.625 11.8125H11.375C12.0999 11.8125 12.6875 11.2249 12.6875 10.5V3.5C12.6875 2.77513 12.0999 2.1875 11.375 2.1875Z" stroke="white" stroke-linejoin="round"/>
<path d="M9.1875 5.6875C9.67075 5.6875 10.0625 5.29575 10.0625 4.8125C10.0625 4.32925 9.67075 3.9375 9.1875 3.9375C8.70425 3.9375 8.3125 4.32925 8.3125 4.8125C8.3125 5.29575 8.70425 5.6875 9.1875 5.6875Z" stroke="white" stroke-miterlimit="10"/>
<path d="M8.3125 9.18175L5.83352 6.70741C5.67577 6.5497 5.46375 6.45819 5.24078 6.45159C5.01782 6.44498 4.80075 6.52377 4.63395 6.67187L1.3125 9.62499M6.125 11.8125L9.49758 8.43991C9.65181 8.28537 9.85826 8.19407 10.0764 8.18395C10.2945 8.17383 10.5085 8.24563 10.6764 8.38523L12.6875 10.0625" stroke="white" stroke-linecap="round" stroke-linejoin="round"/>
</svg>
