<svg width="28" height="28" viewBox="0 0 28 28" fill="none" xmlns="http://www.w3.org/2000/svg">
<path d="M22.75 3.5H5.25C4.32205 3.50101 3.4324 3.87009 2.77625 4.52625C2.12009 5.1824 1.75101 6.07205 1.75 7V21C1.75101 21.9279 2.12009 22.8176 2.77625 23.4738C3.4324 24.1299 4.32205 24.499 5.25 24.5H22.75C23.6779 24.499 24.5676 24.1299 25.2238 23.4738C25.8799 22.8176 26.249 21.9279 26.25 21V7C26.249 6.07205 25.8799 5.1824 25.2238 4.52625C24.5676 3.87009 23.6779 3.50101 22.75 3.5ZM18.375 7C18.8942 7 19.4017 7.15395 19.8334 7.44239C20.2651 7.73083 20.6015 8.1408 20.8002 8.62046C20.9989 9.10011 21.0508 9.62791 20.9496 10.1371C20.8483 10.6463 20.5983 11.114 20.2312 11.4812C19.864 11.8483 19.3963 12.0983 18.8871 12.1996C18.3779 12.3008 17.8501 12.2489 17.3705 12.0502C16.8908 11.8515 16.4808 11.5151 16.1924 11.0834C15.904 10.6517 15.75 10.1442 15.75 9.625C15.7507 8.92903 16.0275 8.26177 16.5196 7.76964C17.0118 7.27752 17.679 7.00072 18.375 7ZM5.25 22.75C4.78587 22.75 4.34075 22.5656 4.01256 22.2374C3.68437 21.9092 3.5 21.4641 3.5 21V17.3015L8.68656 12.6913C9.18698 12.2475 9.83777 12.0112 10.5064 12.0305C11.175 12.0498 11.811 12.3233 12.285 12.7952L15.837 16.3395L9.42648 22.75H5.25ZM24.5 21C24.5 21.4641 24.3156 21.9092 23.9874 22.2374C23.6592 22.5656 23.2141 22.75 22.75 22.75H11.9016L18.5418 16.1098C19.0119 15.71 19.6085 15.4898 20.2257 15.4882C20.8428 15.4866 21.4405 15.7037 21.9127 16.1011L24.5 18.2569V21Z" fill="#676767"/>
</svg>
