<svg width="10" height="14" viewBox="0 0 10 14" fill="none" xmlns="http://www.w3.org/2000/svg">
<path d="M9.13715 12.3156C8.20894 12.8384 7.16004 13.1091 6.0948 13.1007C5.02955 13.0923 3.98509 12.8052 3.0653 12.2679C2.14551 11.7306 1.38246 10.9618 0.85205 10.038C0.321637 9.11421 0.0423487 8.06762 0.0419677 7.00235C0.0415867 5.93707 0.320126 4.89023 0.849878 3.96596C1.37963 3.04169 2.14213 2.27221 3.06153 1.73405C3.98094 1.19589 5.02519 0.907822 6.09043 0.898491C7.15567 0.889161 8.20476 1.1589 9.13335 1.68086C9.2036 1.71689 9.26392 1.76962 9.30901 1.83443C9.35411 1.89923 9.38259 1.97412 9.39196 2.05252C9.40133 2.13091 9.3913 2.21041 9.36275 2.28402C9.3342 2.35763 9.288 2.42311 9.22822 2.47469C9.20169 2.50099 9.1711 2.52284 9.13762 2.53941C8.34865 2.98607 7.69227 3.63401 7.23542 4.41712C6.77857 5.20023 6.53762 6.0905 6.53714 6.99709C6.53666 7.90368 6.77666 8.79415 7.23268 9.57766C7.68869 10.3612 8.34439 11.0097 9.13288 11.457L9.24504 11.5347C9.32069 11.6092 9.37035 11.706 9.38666 11.8109C9.40298 11.9158 9.38508 12.0232 9.33562 12.1171C9.29294 12.2032 9.22322 12.2729 9.13715 12.3156Z" fill="#212121"/>
</svg>
