<svg width="25" height="25" viewBox="0 0 25 25" fill="none" xmlns="http://www.w3.org/2000/svg">
<circle cx="12.5" cy="12.5" r="12.5" fill="#D9D9D9"/>
<path d="M10 16.875C10.6875 16.875 11.25 16.3125 11.25 15.625V9.375C11.25 8.6875 10.6875 8.125 10 8.125C9.3125 8.125 8.75 8.6875 8.75 9.375V15.625C8.75 16.3125 9.3125 16.875 10 16.875ZM13.75 9.375V15.625C13.75 16.3125 14.3125 16.875 15 16.875C15.6875 16.875 16.25 16.3125 16.25 15.625V9.375C16.25 8.6875 15.6875 8.125 15 8.125C14.3125 8.125 13.75 8.6875 13.75 9.375Z" fill="#A29F9F"/>
</svg>
