<svg width="14" height="14" viewBox="0 0 14 14" fill="none" xmlns="http://www.w3.org/2000/svg">
<path fill-rule="evenodd" clip-rule="evenodd" d="M4.15625 2.17383C4.33862 2.17383 4.50186 2.28695 4.56589 2.45771L6.69516 8.13577C6.69768 8.14203 6.70006 8.14837 6.70229 8.15478L7.84714 11.2077C7.93198 11.434 7.81735 11.6861 7.59111 11.771C7.36487 11.8558 7.11269 11.7412 7.02785 11.5149L5.98587 8.73633H2.32662L1.28464 11.5149C1.1998 11.7412 0.94762 11.8558 0.72138 11.771C0.49514 11.6861 0.380512 11.434 0.465352 11.2077L1.6102 8.15477C1.61244 8.14837 1.61481 8.14204 1.61733 8.13577L3.7466 2.45771C3.81064 2.28695 3.97388 2.17383 4.15625 2.17383ZM2.65475 7.86133H5.65775L4.15625 3.85733L2.65475 7.86133ZM10.9375 5.67383C10.2073 5.67383 9.58009 6.10006 9.31672 6.71991C9.22223 6.9423 8.96536 7.04598 8.74297 6.95149C8.52059 6.857 8.41691 6.60013 8.5114 6.37774C8.91467 5.42862 9.86304 4.79883 10.9375 4.79883C11.6696 4.79883 12.3302 5.0549 12.8095 5.52581C13.29 5.99786 13.5625 6.66056 13.5625 7.42383V11.3613C13.5625 11.603 13.3666 11.7988 13.125 11.7988C12.8834 11.7988 12.6875 11.603 12.6875 11.3613V7.42383C12.6875 6.8746 12.4951 6.44354 12.1963 6.14998C11.8963 5.85525 11.4632 5.67383 10.9375 5.67383Z" fill="#7B7AC1"/>
<path fill-rule="evenodd" clip-rule="evenodd" d="M10.5583 7.78229C11.5114 7.67016 12.5691 7.64258 13.125 7.64258C13.3666 7.64258 13.5625 7.83845 13.5625 8.08008V8.49023C13.5625 9.65648 13.2203 10.5135 12.6061 11.0729C11.9998 11.6253 11.1952 11.8262 10.3906 11.8262C9.84161 11.8262 9.32143 11.6434 8.93411 11.2866C8.54245 10.9259 8.3125 10.4105 8.3125 9.80273C8.3125 9.11228 8.63527 8.61517 9.09074 8.29246C9.52643 7.98377 10.0721 7.83955 10.5582 7.7823L10.5583 7.78229ZM10.6605 8.6513C10.2505 8.6996 9.86657 8.81514 9.59659 9.00642C9.34639 9.18369 9.1875 9.42678 9.1875 9.80273C9.1875 10.1794 9.32478 10.4569 9.52689 10.643C9.73333 10.8332 10.0335 10.9512 10.3906 10.9512C11.0626 10.9512 11.6252 10.7829 12.0169 10.4261C12.3966 10.0802 12.6813 9.49697 12.6874 8.52246C12.1264 8.53413 11.3595 8.56906 10.6606 8.65129" fill="#7B7AC1"/>
</svg>
